# xmcd CD database file
#
# Track frame offsets:
#	150
#	16627
#	30585
#	44405
#	59925
#	74110
#	89122
#	103025
#	118105
#	131292
#
# Disc length: 1939 seconds
#
# Revision: 0
# Processed by: cddbd v1.4PL0 Copyright (c) Steve Scherf et al.
# Submitted via: CDex 1.40Beta9
#
DISCID=9207910a
DTITLE=Tammy Wynette - Tammy Wynette - Sometimes When We Touch
DYEAR=1994
DGENRE=Country
TTITLE0=Sometimes When We Touch (with Mark Gray)
TTITLE1=You Can Lead A Heart To Love (But You Can't Make It Fall)
TTITLE2=Breaking Away
TTITLE3=Every Time You Touch Her (Think Of Me)
TTITLE4=Between Twenty Nine And Danger
TTITLE5=It's Only Over For You
TTITLE6=The Party Of The First Part
TTITLE7=It's Hard To Be A Dreamer (When I Used To Be The Dream)
TTITLE8=If It Ain't Love
TTITLE9=He Talks To Me
EXTD=YEAR: 1994 ID3G: 2
EXTT0=
EXTT1=
EXTT2=
EXTT3=
EXTT4=
EXTT5=
EXTT6=
EXTT7=
EXTT8=
EXTT9=
PLAYORDER=
